<svg xmlns="http://www.w3.org/2000/svg" viewBox="0 0 400 300" width="400" height="300" fill="none">
<path d="M60 90C60 30 140 0 220 20s150 40 150 110-50 130-150 130S60 150 60 90Z" fill="#0F766E" fill-opacity=".1"/><circle cx="340" cy="60" r="36" fill="#D4A24C" fill-opacity=".2"/><circle cx="50" cy="240" r="20" fill="#0F766E" fill-opacity=".12"/><path d="M200 40l80 26v70c0 50-34 84-80 104-46-20-80-54-80-104V66Z" fill="#0F766E"/><rect x="164" y="128" width="72" height="60" rx="10" fill="#D4A24C"/><path d="M178 128v-16a22 22 0 0 1 44 0v16" stroke="#E5B863" stroke-width="10"/><circle cx="200" cy="154" r="7" fill="#fff"/><path d="M200 158v14" stroke="#fff" stroke-width="6" stroke-linecap="round"/><path d="M330 80L332.47 87.53L340 90L332.47 92.47L330 100L327.53 92.47L320 90L327.53 87.53Z" fill="#D4A24C"/>
</svg>
